<svg width="11" height="9" viewBox="0 0 11 9" fill="none" xmlns="http://www.w3.org/2000/svg">
<path d="M0.142883 4.83338C0.142883 4.60285 0.314191 4.41234 0.536451 4.38218L0.59824 4.37803L8.60281 4.37839L5.711 1.49839C5.53279 1.32095 5.53217 1.03263 5.70961 0.85442C5.87092 0.69241 6.12387 0.677169 6.30241 0.809053L6.35358 0.853033L10.0268 4.51046C10.0503 4.53385 10.0707 4.55917 10.088 4.5859C10.0929 4.59395 10.0979 4.60218 10.1026 4.61057C10.1069 4.61777 10.1109 4.62525 10.1146 4.6328C10.1197 4.6438 10.1247 4.65516 10.1293 4.66675C10.133 4.67569 10.1361 4.68438 10.1389 4.69314C10.1423 4.704 10.1455 4.71558 10.1483 4.72733C10.1504 4.73554 10.1521 4.74344 10.1535 4.75137C10.1555 4.76316 10.1572 4.77537 10.1585 4.78773C10.1595 4.79715 10.1602 4.80648 10.1605 4.81583C10.1606 4.82149 10.1607 4.82742 10.1607 4.83338L10.1605 4.85102C10.1602 4.85996 10.1596 4.86889 10.1587 4.8778L10.1607 4.83338C10.1607 4.86212 10.1581 4.89023 10.153 4.91749C10.1518 4.924 10.1504 4.93068 10.1488 4.93734C10.1456 4.95105 10.1419 4.96425 10.1376 4.97719C10.1355 4.98362 10.133 4.99049 10.1304 4.99731C10.125 5.01101 10.1193 5.02407 10.1129 5.03679C10.1099 5.04278 10.1066 5.04904 10.1032 5.05524C10.0975 5.06535 10.0916 5.07496 10.0854 5.08433C10.081 5.09096 10.0762 5.09786 10.0711 5.10466L10.0672 5.1099C10.0549 5.12593 10.0416 5.14112 10.0274 5.15537L10.0268 5.15579L6.35361 8.81383C6.17541 8.99129 5.8871 8.99069 5.70964 8.81249C5.54831 8.6505 5.53414 8.39749 5.66678 8.2195L5.71097 8.16852L8.6016 5.2891L0.59824 5.28874C0.346754 5.28874 0.142883 5.08487 0.142883 4.83338Z" fill="#F4F6F6"/>
</svg>
