<svg width="11" height="9" viewBox="0 0 11 9" fill="none" xmlns="http://www.w3.org/2000/svg">
<path d="M10.8571 4.16662C10.8571 4.39715 10.6858 4.58767 10.4635 4.61782L10.4018 4.62197L2.39719 4.62161L5.289 7.50161C5.46721 7.67906 5.46783 7.96737 5.29039 8.14558C5.12908 8.30759 4.87613 8.32283 4.69759 8.19095L4.64642 8.14697L0.973206 4.48954C0.949715 4.46615 0.929311 4.44084 0.911994 4.4141C0.907103 4.40606 0.902125 4.39782 0.897404 4.38943C0.893063 4.38223 0.88914 4.37475 0.885438 4.3672C0.880298 4.3562 0.875275 4.34484 0.870716 4.33325C0.86701 4.32432 0.863916 4.31562 0.861094 4.30686C0.857739 4.296 0.854479 4.28442 0.851675 4.27267C0.849592 4.26446 0.847941 4.25656 0.846501 4.24863C0.844476 4.23684 0.842752 4.22463 0.841523 4.21227C0.84046 4.20285 0.839821 4.19352 0.839467 4.18417C0.839377 4.17851 0.839261 4.17258 0.839261 4.16662L0.83949 4.14898C0.839839 4.14004 0.84045 4.13111 0.841322 4.1222L0.839261 4.16662C0.839261 4.13788 0.841923 4.10977 0.847014 4.08251C0.848194 4.076 0.849601 4.06932 0.851158 4.06266C0.854393 4.04895 0.858131 4.03575 0.862435 4.02281C0.864548 4.01638 0.867009 4.00951 0.869639 4.00269C0.87496 3.98899 0.880744 3.97593 0.887107 3.96321C0.890063 3.95723 0.893374 3.95096 0.89684 3.94476C0.902531 3.93465 0.908393 3.92504 0.914592 3.91567C0.918966 3.90904 0.923808 3.90214 0.928866 3.89535L0.932806 3.8901C0.945074 3.87407 0.958384 3.85888 0.972633 3.84463L0.973179 3.84421L4.64639 0.186172C4.82459 0.00871292 5.1129 0.00930983 5.29036 0.187506C5.45169 0.349502 5.46586 0.602506 5.33322 0.780496L5.28903 0.831477L2.3984 3.7109L10.4018 3.71126C10.6532 3.71126 10.8571 3.91513 10.8571 4.16662Z" fill="#FF725E"/>
</svg>
